<?xml version="1.0" encoding="UTF-8" standalone="no"?>
<!-- Created with Inkscape (http://www.inkscape.org/) -->

<svg
   width="13.926281mm"
   height="7.122046mm"
   viewBox="0 0 13.926281 7.122046"
   version="1.1"
   id="svg1"
   xmlns:inkscape="http://www.inkscape.org/namespaces/inkscape"
   xmlns:sodipodi="http://sodipodi.sourceforge.net/DTD/sodipodi-0.dtd"
   xmlns="http://www.w3.org/2000/svg"
   xmlns:svg="http://www.w3.org/2000/svg">
  <sodipodi:namedview
     id="namedview1"
     pagecolor="#ffffff"
     bordercolor="#000000"
     borderopacity="0.25"
     inkscape:showpageshadow="2"
     inkscape:pageopacity="0.0"
     inkscape:pagecheckerboard="0"
     inkscape:deskcolor="#d1d1d1"
     inkscape:document-units="mm" />
  <defs
     id="defs1" />
  <g
     inkscape:label="Capa 1"
     inkscape:groupmode="layer"
     id="layer1"
     transform="translate(-51.686769,-81.575384)">
    <g
       id="g3"
       inkscape:export-filename="g3.svg"
       inkscape:export-xdpi="96"
       inkscape:export-ydpi="96">
      <path
         id="rect2"
         style="fill:#000000;fill-opacity:1;stroke-width:0.197625"
         d="m 51.686768,81.575382 v 7.122046 h 13.926281 v -7.122046 z m 4.151684,1.862936 h 1.126546 c 0.03307,0.201193 0.06821,0.438217 0.10542,0.711068 l 0.11989,0.851627 0.198437,-1.562695 h 1.134815 v 3.346566 H 57.762882 V 84.52559 l -0.303857,2.259294 h -0.539502 l -0.320394,-2.207618 v 2.207618 h -0.760677 z m 3.03444,0 h 0.651123 c 0.420301,0 0.704178,0.01929 0.851628,0.05788 0.148828,0.03858 0.261827,0.101975 0.338997,0.19017 0.07717,0.08819 0.125402,0.186724 0.144694,0.295589 0.01929,0.107487 0.02894,0.319705 0.02894,0.636654 v 1.172021 c 0,0.300412 -0.01447,0.501606 -0.04341,0.603581 -0.02756,0.100596 -0.07648,0.179834 -0.146761,0.237711 -0.07028,0.0565 -0.157097,0.09646 -0.260449,0.11989 -0.103353,0.02205 -0.259072,0.03307 -0.467155,0.03307 h -1.097608 z m 2.315104,0 h 0.835092 v 0.791683 c 0.0689,-0.07993 0.145383,-0.139182 0.229443,-0.177767 0.08544,-0.03996 0.177767,-0.05994 0.276986,-0.05994 0.114377,0 0.213596,0.01792 0.297656,0.05374 0.08406,0.03583 0.148139,0.08613 0.192236,0.150895 0.0441,0.06477 0.07028,0.128158 0.07855,0.190169 0.0096,0.06201 0.01447,0.194304 0.01447,0.396875 v 1.2361 c 0,0.201194 -0.01378,0.3514 -0.04134,0.450619 -0.02618,0.09784 -0.08888,0.183279 -0.188103,0.256315 -0.09922,0.07166 -0.217041,0.107487 -0.353466,0.107487 -0.09784,0 -0.189481,-0.02136 -0.274919,-0.06408 -0.08406,-0.04272 -0.161231,-0.106798 -0.23151,-0.192236 l -0.05374,0.206706 h -0.781348 z m -1.444873,0.572575 v 2.201416 c 0.125402,0 0.202572,-0.02481 0.231511,-0.07441 0.02894,-0.05099 0.04341,-0.188103 0.04341,-0.411345 v -1.300179 c 0,-0.151584 -0.0048,-0.248736 -0.01447,-0.291455 -0.0096,-0.04272 -0.0317,-0.07373 -0.06615,-0.09302 -0.03445,-0.02067 -0.09922,-0.03101 -0.194304,-0.03101 z m 2.401921,0.467155 c -0.05099,0 -0.08406,0.01929 -0.09922,0.05788 -0.01516,0.03721 -0.02274,0.132292 -0.02274,0.285254 v 1.182357 c 0,0.14745 0.0083,0.241846 0.0248,0.283187 0.01792,0.04134 0.05237,0.06201 0.103353,0.06201 0.05236,0 0.08613,-0.02136 0.101286,-0.06408 0.01654,-0.04272 0.02481,-0.145384 0.02481,-0.307992 v -1.155485 c 0,-0.141937 -0.009,-0.234266 -0.02687,-0.276985 -0.01792,-0.0441 -0.05306,-0.06615 -0.10542,-0.06615 z" />
      <text
         xml:space="preserve"
         style="font-size:4.51028px;font-family:Georgia;-inkscape-font-specification:'Georgia, Normal';text-align:center;text-anchor:middle;fill:#ea0b55;fill-opacity:1;stroke-width:0.281893"
         x="55.027298"
         y="86.792786"
         id="text1"><tspan
           sodipodi:role="line"
           id="tspan1"
           style="font-style:normal;font-variant:normal;font-weight:normal;font-stretch:normal;font-size:4.51028px;font-family:'Times New Roman';-inkscape-font-specification:'Times New Roman, Normal';font-variant-ligatures:normal;font-variant-caps:normal;font-variant-numeric:normal;font-variant-east-asian:normal;fill:#ea0b55;fill-opacity:1;stroke-width:0.281893"
           x="55.027298"
           y="86.792786">a</tspan></text>
    </g>
  </g>
</svg>
